<svg xmlns="http://www.w3.org/2000/svg" viewBox="0 0 1200 760" role="img" aria-labelledby="title desc">
  <title id="title">Infografía sobre capital humano</title>
  <desc id="desc">Elementos, riesgos y acciones del capital humano.</desc>
  <rect width="1200" height="760" rx="34" fill="#07110f"/>
  <text x="70" y="82" fill="#ffb39f" font-family="Arial,Segoe UI,sans-serif" font-size="28" font-weight="800">CAPITAL HUMANO</text>
  <text x="70" y="136" fill="#ffffff" font-family="Arial,Segoe UI,sans-serif" font-size="44" font-weight="900">Experiencia que debe circular</text>
  <text x="70" y="178" fill="#d9ebe6" font-family="Arial,Segoe UI,sans-serif" font-size="22">Habilidades, motivación, creatividad, liderazgo y aprendizaje.</text>

  <g font-family="Arial,Segoe UI,sans-serif">
    <g transform="translate(90 260)">
      <rect width="330" height="310" rx="26" fill="#10221f" stroke="#ff806f" stroke-width="3"/>
      <circle cx="165" cy="92" r="52" fill="#ff806f"/>
      <path d="M80 242c28-82 142-82 170 0" fill="#f3c75f"/>
      <text x="36" y="276" fill="#ffffff" font-size="27" font-weight="900">Clave del caso</text>
    </g>
    <g transform="translate(470 260)">
      <rect width="290" height="130" rx="22" fill="#142721" stroke="#5ee2c2"/>
      <text x="28" y="44" fill="#5ee2c2" font-size="24" font-weight="900">Fortalezas</text>
      <text x="28" y="78" fill="#d9ebe6" font-size="19">Experiencia, criterio</text>
      <text x="28" y="104" fill="#d9ebe6" font-size="19">y creatividad.</text>
    </g>
    <g transform="translate(820 260)">
      <rect width="290" height="130" rx="22" fill="#2b1b19" stroke="#ff806f"/>
      <text x="28" y="44" fill="#ff806f" font-size="24" font-weight="900">Riesgos</text>
      <text x="28" y="78" fill="#ffe0dc" font-size="19">Jubilación, rotación</text>
      <text x="28" y="104" fill="#ffe0dc" font-size="19">y baja transferencia.</text>
    </g>
    <g transform="translate(470 430)">
      <rect width="640" height="180" rx="24" fill="#2b2513" stroke="#f3c75f"/>
      <text x="30" y="48" fill="#f3c75f" font-size="25" font-weight="900">Acciones recomendadas</text>
      <text x="30" y="88" fill="#f8ecd0" font-size="20">1. Mentorías observadas.</text>
      <text x="30" y="120" fill="#f8ecd0" font-size="20">2. Comunidades de práctica.</text>
      <text x="30" y="152" fill="#f8ecd0" font-size="20">3. Documentar criterios y ejemplos.</text>
    </g>
  </g>
</svg>
