<svg xmlns="http://www.w3.org/2000/svg" viewBox="0 0 1200 760" role="img" aria-labelledby="title desc">
  <title id="title">Infografía: conocimiento organizacional</title>
  <desc id="desc">Mapa visual sobre conocimiento tácito, explícito y memoria institucional.</desc>
  <defs>
    <linearGradient id="bg" x1="0" y1="0" x2="1" y2="1">
      <stop offset="0" stop-color="#061713"/>
      <stop offset=".58" stop-color="#12362f"/>
      <stop offset="1" stop-color="#211b35"/>
    </linearGradient>
    <linearGradient id="gold" x1="0" y1="0" x2="1" y2="1">
      <stop offset="0" stop-color="#ffe08a"/>
      <stop offset="1" stop-color="#f3b342"/>
    </linearGradient>
    <filter id="glow" x="-20%" y="-20%" width="140%" height="140%">
      <feGaussianBlur stdDeviation="6" result="blur"/>
      <feMerge><feMergeNode in="blur"/><feMergeNode in="SourceGraphic"/></feMerge>
    </filter>
  </defs>
  <rect width="1200" height="760" rx="36" fill="url(#bg)"/>
  <g opacity=".28" fill="none" stroke="#5ee2c2" stroke-width="1">
    <path d="M95 124h1010M95 236h1010M95 348h1010M95 460h1010M95 572h1010M95 684h1010"/>
    <path d="M155 84v600M355 84v600M555 84v600M755 84v600M955 84v600"/>
  </g>
  <text x="70" y="84" fill="#5ee2c2" font-family="Inter,Segoe UI,sans-serif" font-size="30" font-weight="800">GESTIÓN DEL CONOCIMIENTO</text>
  <text x="70" y="135" fill="#ffffff" font-family="Inter,Segoe UI,sans-serif" font-size="50" font-weight="900">Del saber personal a la memoria organizacional</text>
  <text x="70" y="176" fill="#cfe8e0" font-family="Inter,Segoe UI,sans-serif" font-size="23">Una organización aprende cuando transforma experiencia dispersa</text>
  <text x="70" y="208" fill="#cfe8e0" font-family="Inter,Segoe UI,sans-serif" font-size="23">en conocimiento compartido, recuperable y útil.</text>

  <g transform="translate(80 245)">
    <rect width="305" height="315" rx="28" fill="#102a25" stroke="#5ee2c2" stroke-width="3"/>
    <circle cx="78" cy="82" r="44" fill="#5ee2c2"/>
    <path d="M55 86c20-38 52-38 46 2 27-10 33 31 2 34H51c-31-6-19-47 4-36Z" fill="#07110f"/>
    <text x="36" y="166" fill="#fff" font-family="Inter,Segoe UI,sans-serif" font-size="30" font-weight="900">Conocimiento tácito</text>
    <text x="36" y="212" fill="#d4e3df" font-family="Inter,Segoe UI,sans-serif" font-size="21">Experiencia, intuición,</text>
    <text x="36" y="242" fill="#d4e3df" font-family="Inter,Segoe UI,sans-serif" font-size="21">habilidad y criterio que</text>
    <text x="36" y="272" fill="#d4e3df" font-family="Inter,Segoe UI,sans-serif" font-size="21">viven en las personas.</text>
  </g>

  <g transform="translate(447 245)">
    <rect width="305" height="315" rx="28" fill="#13213b" stroke="#8ea8ff" stroke-width="3"/>
    <rect x="54" y="45" width="96" height="76" rx="12" fill="#8ea8ff"/>
    <path d="M76 72h52M76 93h42M166 54h58v84h-58z" stroke="#f6fbf9" stroke-width="8" fill="none" stroke-linecap="round"/>
    <text x="36" y="166" fill="#fff" font-family="Inter,Segoe UI,sans-serif" font-size="30" font-weight="900">Conocimiento explícito</text>
    <text x="36" y="212" fill="#d7ddf4" font-family="Inter,Segoe UI,sans-serif" font-size="21">Protocolos, guías, datos,</text>
    <text x="36" y="242" fill="#d7ddf4" font-family="Inter,Segoe UI,sans-serif" font-size="21">investigaciones y recursos</text>
    <text x="36" y="272" fill="#d7ddf4" font-family="Inter,Segoe UI,sans-serif" font-size="21">que pueden compartirse.</text>
  </g>

  <g transform="translate(814 245)">
    <rect width="305" height="315" rx="28" fill="#2a2412" stroke="#f3c75f" stroke-width="3"/>
    <circle cx="95" cy="84" r="52" fill="url(#gold)" filter="url(#glow)"/>
    <path d="M70 84h50M95 59v50M151 58h74v104H151zM170 88h36M170 115h28" stroke="#07110f" stroke-width="9" fill="none" stroke-linecap="round"/>
    <text x="36" y="166" fill="#fff" font-family="Inter,Segoe UI,sans-serif" font-size="30" font-weight="900">Memoria institucional</text>
    <text x="36" y="212" fill="#f3ead0" font-family="Inter,Segoe UI,sans-serif" font-size="21">Saber organizado con</text>
    <text x="36" y="242" fill="#f3ead0" font-family="Inter,Segoe UI,sans-serif" font-size="21">responsables, acceso,</text>
    <text x="36" y="272" fill="#f3ead0" font-family="Inter,Segoe UI,sans-serif" font-size="21">calidad y reutilización.</text>
  </g>

  <g transform="translate(182 606)" fill="none" stroke-linecap="round" stroke-linejoin="round">
    <path d="M0 0C120 55 218 55 338 0" stroke="#5ee2c2" stroke-width="10"/>
    <path d="M317-18l42 17-38 23" stroke="#5ee2c2" stroke-width="10"/>
    <path d="M448 0C568 55 666 55 786 0" stroke="#f3c75f" stroke-width="10"/>
    <path d="M765-18l42 17-38 23" stroke="#f3c75f" stroke-width="10"/>
  </g>
  <g font-family="Inter,Segoe UI,sans-serif" font-size="23" font-weight="850">
    <text x="112" y="655" fill="#5ee2c2">Observar</text>
    <text x="375" y="655" fill="#8ea8ff">Documentar</text>
    <text x="654" y="655" fill="#f3c75f">Organizar</text>
    <text x="948" y="655" fill="#86d69f">Aplicar</text>
  </g>
</svg>
